<?xml version="1.0" standalone="no"?>
<!DOCTYPE svg PUBLIC "-//W3C//DTD SVG 20010904//EN"
 "http://www.w3.org/TR/2001/REC-SVG-20010904/DTD/svg10.dtd">
<svg version="1.0" xmlns="http://www.w3.org/2000/svg"
 width="650.000000pt" height="650.000000pt" viewBox="0 0 650.000000 650.000000"
 preserveAspectRatio="xMidYMid meet">
<metadata>
Created by potrace 1.14, written by Peter Selinger 2001-2017
</metadata>
<g transform="translate(0.000000,650.000000) scale(0.100000,-0.100000)"
fill="#000000" stroke="none">
<path d="M0 3250 l0 -3250 309 0 308 0 26 58 c52 114 166 421 231 617 84 256
160 536 231 855 21 91 48 207 61 257 13 51 24 104 24 119 0 14 4 23 10 19 6
-3 10 -19 10 -34 0 -15 4 -31 9 -36 5 -6 16 -35 25 -65 8 -30 33 -92 56 -138
22 -46 40 -91 40 -100 0 -9 -16 -78 -35 -152 -20 -74 -47 -181 -62 -237 -15
-62 -30 -100 -36 -96 -6 3 -7 1 -3 -5 3 -6 -2 -28 -13 -49 -25 -51 -36 -87
-23 -79 6 3 14 21 17 39 4 17 13 39 19 47 7 8 21 33 32 55 11 22 34 67 51 100
39 72 113 245 113 262 0 28 19 19 51 -25 18 -26 26 -41 17 -34 -13 10 -17 8
-28 -20 -7 -18 -26 -61 -42 -96 -15 -35 -28 -66 -28 -70 0 -4 -6 -19 -14 -34
-8 -14 -23 -50 -34 -80 -31 -81 -226 -507 -298 -650 -53 -106 -184 -407 -184
-423 0 -3 6 -5 13 -5 11 0 27 27 48 85 6 16 7 14 8 -12 1 -17 7 -33 14 -36 6
-2 8 -8 4 -13 -4 -5 -12 -2 -17 6 -11 19 -22 8 -14 -14 7 -19 40 -22 48 -3 5
9 7 9 12 0 3 -8 25 -13 55 -13 48 0 49 1 49 31 0 17 4 28 10 24 6 -4 8 13 5
47 -3 35 -2 48 5 38 5 -8 12 -11 17 -7 4 4 2 17 -5 27 -7 12 -8 20 -2 20 5 0
10 6 10 13 0 6 8 21 17 32 15 19 15 19 8 -10 -3 -16 -10 -32 -13 -35 -4 -3 -8
-20 -8 -39 -1 -18 -5 -36 -10 -40 -14 -10 -15 -101 -1 -101 8 0 21 42 36 108
26 122 84 308 114 367 27 55 95 142 150 192 47 43 120 93 136 93 5 0 72 -71
148 -157 76 -87 200 -227 275 -311 l138 -153 -6 -70 -7 -69 192 0 c105 0 191
4 191 9 0 16 -119 368 -163 481 -47 121 -147 341 -193 425 -15 28 -40 73 -54
100 -15 28 -62 100 -106 160 -43 61 -93 130 -111 155 -139 193 -270 465 -346
720 -41 134 -112 575 -130 800 -3 35 -4 31 -5 -20 -3 -131 35 -455 83 -695 20
-102 23 -125 15 -120 -4 3 -10 -14 -13 -38 -11 -80 -50 -247 -56 -242 -3 4
-14 27 -23 53 -10 30 -17 39 -17 25 -1 -28 52 -171 92 -248 39 -75 113 -192
128 -201 14 -9 -6 31 -39 73 -13 18 -21 33 -18 33 4 0 -2 10 -14 22 -25 27
-27 46 -2 27 15 -13 16 -12 3 3 -7 10 -16 16 -20 14 -4 -3 -14 9 -23 25 -19
32 -14 38 11 14 44 -43 83 -69 161 -107 103 -50 95 -44 80 -63 -11 -13 -10
-14 4 -9 9 3 16 10 16 15 0 23 20 4 51 -47 19 -31 56 -83 82 -115 26 -32 46
-59 44 -59 -19 0 -278 127 -298 146 -14 13 -28 21 -32 18 -11 -11 -108 77
-153 139 -65 88 -148 268 -177 382 -31 121 -63 320 -77 475 -12 142 -13 424 0
545 17 174 32 290 37 295 2 3 10 -3 17 -13 10 -13 15 -117 19 -425 4 -278 11
-443 21 -522 16 -115 40 -250 56 -305 4 -16 11 -43 15 -59 3 -15 8 -26 11 -23
3 2 -4 42 -15 88 -11 46 -25 120 -31 164 -6 44 -15 109 -21 145 -15 91 -6 380
20 585 25 203 26 251 7 258 -17 7 -25 -20 -27 -88 0 -27 -3 -44 -6 -37 -3 8
-2 51 2 97 l7 83 65 -34 c36 -19 110 -57 164 -86 77 -39 99 -55 94 -67 -5 -13
-4 -14 6 -3 15 14 33 16 24 2 -3 -5 0 -7 9 -4 11 4 17 -3 22 -23 51 -213 158
-477 369 -908 148 -302 311 -580 244 -415 -33 80 -53 134 -177 470 -127 341
-217 562 -287 699 -14 28 -26 58 -28 68 -1 10 -6 24 -10 31 -25 39 45 -10 133
-93 41 -39 85 -78 98 -87 17 -11 23 -27 26 -62 2 -25 9 -52 15 -60 6 -7 34
-84 62 -172 73 -227 142 -426 210 -600 32 -83 81 -211 108 -285 93 -253 100
-266 167 -305 32 -18 93 -48 134 -65 41 -17 89 -37 105 -44 29 -13 191 -42
278 -50 115 -11 358 -60 587 -118 140 -36 352 -81 470 -102 118 -20 218 -39
222 -43 8 -8 39 -134 34 -139 -1 -2 -22 7 -46 18 -86 42 -256 107 -345 131
-201 57 -248 69 -337 87 -227 47 -379 61 -689 66 -252 4 -300 9 -463 55 -181
51 -339 124 -476 218 -50 35 -59 39 -40 18 14 -15 38 -34 53 -42 16 -9 25 -20
21 -26 -4 -6 -3 -8 4 -4 16 10 69 -26 66 -46 -1 -9 4 -22 12 -29 10 -8 14 -8
14 0 0 6 -6 11 -12 11 -8 0 -6 4 3 10 13 7 41 -2 110 -34 113 -53 285 -112
354 -121 56 -8 74 -17 125 -65 90 -83 210 -201 198 -194 -10 6 -10 4 1 -9 16
-20 36 -23 24 -5 -4 7 35 -23 87 -67 273 -230 438 -376 601 -532 l85 -83 368
0 c347 0 368 1 361 18 -18 46 -34 111 -37 151 -2 43 -5 47 -85 110 -127 100
-278 189 -618 364 -331 170 -501 262 -510 277 -4 6 13 7 42 3 31 -4 88 -28
163 -68 63 -34 210 -111 325 -170 394 -202 571 -308 664 -396 29 -28 36 -31
53 -20 11 7 21 11 23 9 2 -3 15 -35 79 -206 49 -129 46 -76 -3 66 -41 116 -87
263 -156 507 -22 76 -74 325 -90 434 -44 292 -55 708 -35 1306 l7 200 48 105
c52 112 74 140 112 140 77 0 313 84 313 111 0 15 -11 11 -130 -42 -95 -42
-117 -49 -134 -39 -12 6 -31 12 -44 13 -20 1 -21 5 -16 37 4 19 15 64 25 99
10 36 17 66 15 69 -2 2 -7 -7 -11 -20 -14 -43 -133 -312 -202 -458 -72 -151
-151 -280 -207 -340 -41 -45 -157 -145 -166 -145 -4 0 -16 -10 -26 -22 -11
-12 -26 -23 -34 -25 -8 -2 -20 -7 -26 -13 -26 -22 -63 -47 -71 -47 -4 0 -19
-8 -33 -18 -55 -38 -396 -191 -471 -211 -43 -12 -52 -10 -150 25 -117 43 -328
145 -405 197 -167 111 -356 284 -426 387 -50 74 -123 218 -194 384 -19 46 -38
89 -41 96 -3 6 23 -4 57 -23 35 -20 65 -34 67 -31 3 2 -6 10 -19 17 -40 21
-251 181 -305 233 -59 55 -73 54 -18 -1 26 -26 34 -41 30 -57 -4 -13 -3 -16 2
-9 6 8 15 -5 26 -38 15 -41 16 -53 6 -67 -11 -14 -11 -15 0 -5 11 9 21 -3 52
-62 46 -86 48 -97 14 -65 -13 12 -22 28 -18 34 3 6 3 8 -2 4 -13 -12 -37 13
-26 26 6 8 6 17 -1 26 -8 12 -9 12 -4 -2 20 -65 -83 34 -180 172 -162 231
-230 387 -229 529 l0 65 40 0 40 1 9 52 c12 70 2 119 -27 128 -12 4 -26 7 -30
6 -4 -1 -16 3 -26 8 -14 8 -18 24 -20 78 -2 85 -7 100 -31 106 -19 5 -20 14
-20 141 0 217 19 429 47 526 46 161 241 464 432 670 53 57 61 57 36 -4 -50
-119 -117 -543 -113 -711 1 -51 2 -53 5 -15 8 108 45 411 59 480 29 145 55
245 67 255 17 13 89 146 83 152 -8 8 118 113 214 176 38 26 9 20 -46 -9 -119
-62 -293 -234 -404 -399 -18 -27 -39 -53 -46 -57 -21 -13 -160 -229 -217 -338
-52 -99 -143 -329 -153 -388 -3 -15 -16 -72 -29 -127 -13 -55 -31 -140 -40
-188 -9 -48 -22 -104 -29 -123 l-12 -35 -23 41 c-12 22 -20 48 -17 56 3 8 2
13 -3 10 -5 -3 -12 6 -15 21 -5 16 -11 22 -17 16 -11 -11 4 -59 49 -150 24
-50 29 -70 25 -107 -4 -28 -11 -46 -18 -46 -7 0 -15 -10 -19 -22 -9 -37 -7
-136 4 -143 11 -7 14 -145 4 -145 -4 0 -13 8 -20 18 -13 16 -13 16 -14 -3 -1
-18 -1 -19 -11 -2 -5 9 -7 22 -3 29 4 7 3 8 -4 4 -7 -4 -12 -1 -12 8 0 9 -4
16 -9 16 -11 0 -26 57 -22 85 4 36 43 159 62 199 10 22 17 42 14 44 -8 8 -64
-120 -82 -190 -15 -60 -16 -73 -3 -130 7 -35 13 -83 12 -108 -2 -33 0 -41 8
-30 6 10 10 11 10 3 0 -7 6 -13 14 -13 8 0 18 -5 22 -12 4 -6 3 -8 -3 -5 -5 3
-40 -1 -77 -10 -37 -8 -70 -13 -73 -10 -3 3 6 70 21 149 14 79 35 235 46 348
61 609 150 1048 267 1323 58 137 157 316 173 313 11 -1 102 105 96 112 -4 4
-14 -2 -22 -12 -8 -11 -14 -16 -14 -12 0 17 134 168 227 256 74 70 114 99 172
126 152 70 317 98 530 90 109 -5 130 -4 106 6 -18 7 -97 12 -195 12 -180 1
-281 -15 -372 -59 -27 -13 -48 -21 -48 -19 0 11 153 95 281 152 121 55 399
114 629 133 165 13 466 0 691 -31 283 -40 784 -333 983 -576 85 -104 206 -295
272 -432 86 -177 114 -250 159 -412 21 -74 49 -173 63 -220 14 -47 26 -87 27
-90 0 -3 6 -14 12 -25 15 -26 31 -116 48 -269 14 -120 14 -120 11 -34 -1 48
-1 86 1 84 5 -5 81 -296 168 -641 36 -143 69 -267 72 -275 3 -8 5 -18 5 -22
-3 -12 76 -344 100 -423 11 -38 25 -77 31 -85 5 -8 -29 26 -76 75 -86 90 -86
90 -122 203 -34 107 -35 115 -20 138 8 13 11 24 6 24 -5 0 -11 -4 -13 -9 -1
-4 -47 -42 -100 -84 -98 -76 -233 -157 -372 -223 -58 -28 -76 -41 -76 -57 0
-18 2 -19 17 -5 17 14 48 28 65 28 4 0 9 -69 12 -153 5 -188 43 -446 111 -742
16 -69 72 -276 83 -304 4 -9 1 -12 -7 -7 -8 5 -6 -5 4 -31 10 -21 25 -60 35
-88 10 -27 43 -113 75 -190 31 -77 70 -174 85 -215 48 -134 235 -530 262 -555
5 -5 -6 23 -26 62 -82 166 -145 323 -147 370 -1 19 -37 104 -38 90 -1 -4 5
-23 13 -42 12 -28 12 -33 1 -29 -14 6 -72 141 -64 149 3 2 43 -39 90 -92 46
-53 89 -101 94 -107 6 -6 62 -72 125 -146 312 -365 482 -604 605 -850 52 -105
53 -106 60 -98 7 7 -109 247 -128 268 -8 8 -38 53 -67 100 -118 189 -333 460
-615 773 -150 167 -193 224 -207 272 -3 11 -20 60 -38 110 -27 76 -30 93 -19
110 11 18 11 19 -4 7 -14 -12 -17 -10 -23 15 -4 15 -13 37 -20 48 -7 11 -18
43 -24 70 -6 28 -13 59 -17 69 -4 14 13 4 53 -30 33 -27 67 -57 76 -67 9 -11
22 -16 27 -12 7 3 8 0 5 -9 -3 -9 -1 -16 4 -16 6 0 52 -39 102 -87 50 -49 109
-104 131 -123 22 -19 63 -57 90 -83 27 -26 54 -45 59 -42 6 4 9 2 8 -3 -4 -14
72 -83 83 -76 5 3 7 -1 4 -8 -2 -7 15 -27 38 -45 23 -18 56 -44 72 -59 17 -14
56 -47 87 -72 32 -26 58 -50 58 -54 0 -5 5 -8 11 -8 6 0 1 15 -11 33 l-21 32
23 -29 c13 -17 47 -57 75 -90 92 -107 258 -330 357 -481 27 -41 46 -62 46 -51
0 10 -21 48 -47 85 -27 36 -61 86 -76 110 -16 24 -34 49 -40 56 -7 6 -41 51
-77 99 -61 82 -149 190 -242 298 -27 30 -46 44 -56 40 -11 -4 -14 -1 -9 11 4
11 2 14 -9 10 -10 -4 -12 0 -7 13 4 10 2 15 -4 11 -5 -3 -16 9 -23 28 -9 23
-18 31 -28 27 -12 -4 -14 -1 -9 12 6 14 3 17 -9 12 -11 -4 -15 -2 -11 8 7 17
-97 121 -112 112 -6 -4 -9 -1 -5 7 6 17 -193 210 -208 201 -7 -4 -8 -2 -4 5 4
6 0 14 -8 17 -9 3 -13 10 -10 16 3 5 15 3 29 -6 87 -57 556 -160 709 -155 28
1 18 4 -34 10 -200 23 -462 82 -609 136 -126 47 -362 165 -437 218 l-61 44
-41 168 c-49 203 -80 351 -86 418 -3 28 -9 71 -14 98 -5 26 -7 47 -3 47 3 -1
26 -33 50 -72 25 -39 66 -98 93 -131 26 -33 48 -63 48 -67 0 -13 232 -217 335
-296 127 -97 305 -217 322 -217 7 0 11 -3 8 -5 -10 -10 117 -82 222 -127 59
-24 108 -43 109 -42 2 2 -40 24 -92 51 -90 45 -121 70 -59 46 44 -17 40 -5
-12 33 -49 36 -221 220 -348 372 -164 197 -348 462 -423 610 -53 107 -109 300
-92 320 21 25 35 17 59 -32 30 -63 118 -209 137 -228 8 -8 15 -17 14 -20 -1
-21 4 -30 33 -57 17 -18 25 -27 17 -22 -9 5 -4 -2 10 -15 14 -13 19 -20 12
-16 -7 4 8 -24 34 -62 26 -37 51 -67 56 -65 5 1 7 -2 4 -7 -3 -5 4 -22 16 -37
13 -16 26 -33 30 -39 22 -29 155 -194 177 -219 123 -140 195 -211 215 -211 6
0 10 -7 9 -15 -2 -21 183 -184 198 -174 7 4 9 3 5 -4 -8 -13 43 -54 57 -45 6
3 7 1 3 -5 -8 -13 28 -35 39 -24 5 4 5 2 2 -4 -9 -15 170 -137 186 -128 9 5 9
4 1 -5 -12 -13 -142 7 -245 38 -44 14 -58 16 -45 6 36 -27 185 -66 304 -80
l52 -6 0 273 -1 273 -132 65 c-223 110 -472 277 -634 425 -35 31 -63 54 -63
51 0 -25 230 -565 253 -594 5 -7 8 -15 5 -18 -8 -8 -187 187 -207 226 -15 29
-132 327 -205 520 -9 25 -35 65 -57 90 -22 25 -66 77 -97 115 -31 39 -70 85
-86 103 l-31 33 25 21 25 20 35 -43 c19 -24 47 -56 62 -71 14 -15 28 -32 30
-37 1 -5 32 -42 68 -83 69 -78 209 -213 194 -188 -4 8 12 -5 38 -30 46 -46 98
-84 223 -166 125 -83 433 -229 523 -249 l32 -7 0 2076 0 2076 -3250 0 -3250 0
0 -3250z m1413 1095 c-9 -83 -13 -181 -10 -241 l6 -101 -40 1 c-25 0 -44 -5
-50 -14 -8 -11 -9 -7 -5 15 3 17 15 83 26 148 17 103 79 342 86 335 1 -2 -4
-66 -13 -143z m-98 -513 c-13 -14 -17 13 -9 75 l9 68 3 -69 c2 -37 0 -71 -3
-74z m10 -267 l7 -84 31 -6 c127 -23 127 -23 35 -24 -47 -1 -94 -4 -103 -7
-14 -6 -16 5 -14 100 1 94 3 106 19 106 15 0 19 -13 25 -85z m-125 -88 c0 -5
-7 -2 -15 7 -8 8 -15 20 -15 27 0 14 29 -20 30 -34z m45 22 c10 -30 0 -33 -13
-4 -6 14 -7 25 -2 25 5 0 12 -9 15 -21z m267 -124 c23 -69 23 -68 -22 -60 -22
4 -66 8 -97 10 -32 2 -89 6 -128 9 l-70 6 66 -13 c43 -8 79 -22 103 -41 l37
-28 -7 26 c-6 25 -6 25 48 19 29 -3 61 -6 71 -6 23 -2 49 -50 72 -135 18 -62
38 -90 106 -147 24 -21 81 -90 88 -107 4 -13 -270 129 -379 196 -143 88 -204
130 -347 243 -10 8 -13 20 -9 36 6 24 9 25 123 32 65 3 123 8 128 9 6 2 53 3
105 2 l95 -1 17 -50z m-402 -122 c0 -4 -15 -54 -34 -112 -89 -276 -118 -393
-146 -586 -7 -44 -18 -93 -24 -110 -7 -16 -16 -47 -20 -68 -6 -31 -4 -38 6
-32 7 3 5 0 -5 -8 -23 -19 -60 -163 -93 -367 -14 -85 -27 -157 -30 -160 -7 -6
5 192 16 275 16 115 100 553 134 701 19 82 39 176 46 209 6 33 25 119 42 192
l32 132 38 -31 c21 -16 38 -32 38 -35z m50 -137 c-9 -62 -41 -171 -112 -379
-112 -328 -121 -332 -17 -7 37 118 74 236 80 262 7 26 15 45 18 43 3 -1 6 11
7 28 1 41 24 150 30 144 3 -3 0 -44 -6 -91z m479 -8 c13 -21 19 -38 14 -38
-11 0 -53 63 -53 80 0 17 10 7 39 -42z m3461 -56 c0 -21 69 -271 100 -362 58
-171 121 -312 202 -455 22 -38 52 -90 66 -115 l26 -45 -85 70 c-199 163 -291
263 -403 433 -59 89 -66 120 -70 285 l-4 127 72 39 c82 44 96 48 96 23z
m-3803 -24 c-3 -7 -5 -2 -5 12 0 14 2 19 5 13 2 -7 2 -19 0 -25z m723 -163 c0
-13 3 -30 6 -38 10 -27 -59 -5 -73 23 -19 37 -63 140 -63 146 0 3 29 -20 65
-51 45 -39 65 -65 65 -80z m-763 8 c-2 -16 -4 -5 -4 22 0 28 2 40 4 28 2 -13
2 -35 0 -50z m446 22 c-7 -21 -12 -19 -10 4 0 11 5 18 9 15 4 -3 5 -11 1 -19z
m307 -137 c0 -6 -7 -5 -15 2 -8 7 -15 17 -15 22 0 6 7 5 15 -2 8 -7 15 -17 15
-22z m-753 -100 c-3 -7 -5 -2 -5 12 0 14 2 19 5 13 2 -7 2 -19 0 -25z m583
-33 c0 -5 -5 -3 -10 5 -5 8 -10 20 -10 25 0 6 5 3 10 -5 5 -8 10 -19 10 -25z
m2454 -119 c-3 -14 -10 -24 -14 -21 -5 3 -3 16 3 29 15 31 20 27 11 -8z m-30
-50 c-3 -14 -1 -27 7 -32 9 -5 10 -2 6 9 -3 10 -2 17 3 17 12 0 13 -20 1 -38
-6 -11 -10 -10 -15 3 -5 13 -9 15 -20 6 -11 -9 -10 -3 2 24 19 41 25 45 16 11z
m-3347 -138 c-2 -18 -4 -6 -4 27 0 33 2 48 4 33 2 -15 2 -42 0 -60z m3370 10
c-2 -13 -4 -5 -4 17 -1 22 1 32 4 23 2 -10 2 -28 0 -40z m-3367 -193 c0 -123
-8 -161 -24 -119 -3 9 -2 12 5 9 7 -5 9 33 7 119 -2 69 0 126 5 126 4 0 7 -61
7 -135z m-51 38 c0 -31 -2 -34 -9 -18 -8 18 -9 18 -10 -5 -1 -14 -4 -19 -7
-12 -4 10 17 72 24 72 2 0 3 -17 2 -37z m3207 25 c4 -7 4 -10 -1 -6 -4 4 -17
3 -29 -3 -20 -10 -20 -10 -2 5 24 19 23 19 32 4z m-70 -155 c30 -14 52 -28 50
-30 -2 -3 -30 9 -62 26 -73 37 -63 41 12 4z m-3079 -125 c-3 -8 -6 -5 -6 6 -1
11 2 17 5 13 3 -3 4 -12 1 -19z m2768 -253 l0 -275 -96 -39 c-53 -22 -139 -56
-193 -75 -94 -34 -99 -35 -174 -26 -108 14 -208 37 -294 69 l-73 27 -6 104
c-4 58 -10 155 -13 215 -3 61 -13 139 -21 174 -9 35 -12 67 -9 70 4 3 9 0 11
-6 3 -7 8 -13 13 -13 5 0 43 -16 86 -36 91 -42 232 -90 290 -100 36 -5 59 1
175 51 74 32 166 71 204 87 39 17 74 34 80 39 5 5 11 9 15 9 3 0 5 -124 5
-275z m-1379 198 c110 -200 244 -362 456 -551 47 -42 285 -224 316 -241 26
-15 11 -20 -34 -12 -29 6 -69 29 -130 76 -297 228 -535 512 -637 758 -24 57
-12 44 29 -30z m-1423 7 c3 -11 1 -18 -4 -14 -5 3 -9 12 -9 20 0 20 7 17 13
-6z m44 -27 c-3 -10 -5 -2 -5 17 0 19 2 27 5 18 2 -10 2 -26 0 -35z m624 -107
c1 -12 -6 -40 -15 -63 -8 -22 -18 -54 -20 -69 -8 -44 -21 -48 -50 -14 -14 17
-26 37 -26 43 0 8 3 7 9 -2 6 -9 15 8 30 55 11 37 21 71 21 75 0 4 5 20 11 36
l11 28 14 -34 c8 -19 15 -44 15 -55z m-664 52 c-3 -8 -6 -5 -6 6 -1 11 2 17 5
13 3 -3 4 -12 1 -19z m-100 -24 c-3 -3 -12 -4 -19 -1 -8 3 -5 6 6 6 11 1 17
-2 13 -5z m160 -56 c-3 -7 -5 -2 -5 12 0 14 2 19 5 13 2 -7 2 -19 0 -25z
m-164 2 c3 -12 1 -18 -5 -14 -7 4 -8 -6 -4 -27 5 -29 5 -30 -4 -11 -5 13 -7
35 -4 48 7 29 10 30 17 4z m174 -42 c-3 -8 -6 -5 -6 6 -1 11 2 17 5 13 3 -3 4
-12 1 -19z m-241 -230 c-39 -270 -45 -740 -12 -988 15 -114 15 -115 -8 -179
-27 -74 -27 -73 -48 79 -8 60 -12 211 -12 410 0 331 14 490 64 742 11 53 21
107 22 120 1 12 3 0 5 -29 2 -28 -3 -98 -11 -155z m889 193 c3 -5 2 -12 -3
-15 -5 -3 -9 1 -9 9 0 17 3 19 12 6z m-628 -63 c-3 -8 -6 -5 -6 6 -1 11 2 17
5 13 3 -3 4 -12 1 -19z m3 -65 c-11 -17 -11 -17 -6 0 3 10 6 24 7 30 0 9 2 9
5 0 3 -7 0 -20 -6 -30z m4651 -35 c-11 -11 -13 -10 -6 0 4 8 -1 23 -11 35 -18
22 -18 22 6 0 20 -19 22 -25 11 -35z m-4846 12 c-4 -12 -9 -19 -12 -17 -3 3
-2 15 2 27 4 12 9 19 12 17 3 -3 2 -15 -2 -27z m4818 -11 c-8 -8 -13 -7 -18 2
-6 8 -4 10 5 4 10 -6 12 -4 6 11 -6 15 -5 17 5 7 9 -10 10 -16 2 -24z m-4636
-41 c-3 -7 -5 -2 -5 12 0 14 2 19 5 13 2 -7 2 -19 0 -25z m-162 -78 l4 -55
-14 60 c-8 33 -14 69 -14 80 0 41 20 -28 24 -85z m212 58 c-3 -8 -6 -5 -6 6
-1 11 2 17 5 13 3 -3 4 -12 1 -19z m351 -3 c-3 -3 -9 2 -12 12 -6 14 -5 15 5
6 7 -7 10 -15 7 -18z m-61 -77 c-3 -8 -6 -5 -6 6 -1 11 2 17 5 13 3 -3 4 -12
1 -19z m-475 -30 c-6 -6 -7 0 -4 19 5 21 7 23 10 9 2 -10 0 -22 -6 -28z m25
10 c-3 -8 -6 -5 -6 6 -1 11 2 17 5 13 3 -3 4 -12 1 -19z m0 -50 c-3 -8 -6 -5
-6 6 -1 11 2 17 5 13 3 -3 4 -12 1 -19z m798 -6 c-3 -3 -11 0 -18 7 -9 10 -8
11 6 5 10 -3 15 -9 12 -12z m-828 -34 c-3 -8 -6 -5 -6 6 -1 11 2 17 5 13 3 -3
4 -12 1 -19z m22 -68 c0 -9 -4 -8 -9 5 -5 11 -9 27 -9 35 0 9 4 8 9 -5 5 -11
9 -27 9 -35z m771 15 c0 -5 -5 -3 -10 5 -5 8 -10 20 -10 25 0 6 5 3 10 -5 5
-8 10 -19 10 -25z m-649 -32 c-12 -20 -14 -14 -5 12 4 9 9 14 11 11 3 -2 0
-13 -6 -23z m-108 -8 c-3 -9 1 -23 10 -33 8 -9 18 -33 22 -52 5 -30 3 -27 -20
19 -22 48 -27 81 -11 81 3 0 3 -7 -1 -15z m740 0 c-3 -9 -8 -14 -10 -11 -3 3
-2 9 2 15 9 16 15 13 8 -4z m-666 -102 c-3 -10 -5 -4 -5 12 0 17 2 24 5 18 2
-7 2 -21 0 -30z m567 -83 c-15 -28 -29 -48 -31 -46 -5 5 46 96 54 96 2 0 -8
-23 -23 -50z m-30 -146 c5 -14 4 -15 -9 -4 -17 14 -19 20 -6 20 5 0 12 -7 15
-16z m-193 -187 c-10 -9 -11 -8 -5 6 3 10 9 15 12 12 3 -3 0 -11 -7 -18z m-25
-39 c5 -7 3 -8 -6 -3 -10 6 -12 4 -6 -11 5 -14 4 -16 -5 -7 -6 6 -8 16 -5 22
9 14 13 14 22 -1z m-41 -77 c-8 -17 -18 -31 -21 -31 -3 0 -4 3 -2 8 21 43 32
61 35 58 3 -2 -3 -18 -12 -35z m-152 -46 c-3 -9 -8 -14 -10 -11 -3 3 -2 9 2
15 9 16 15 13 8 -4z m87 -79 c0 -3 -4 -8 -10 -11 -5 -3 -10 -1 -10 4 0 6 5 11
10 11 6 0 10 -2 10 -4z m-16 -85 c-4 -17 -9 -30 -11 -27 -3 2 -2 19 2 36 9 41
17 33 9 -9z m-117 -13 c-3 -7 -5 -2 -5 12 0 14 2 19 5 13 2 -7 2 -19 0 -25z
m-34 -22 c-3 -19 -1 -36 6 -40 14 -9 14 -26 1 -26 -5 0 -10 7 -10 15 0 25 -14
17 -29 -15 -7 -17 -10 -38 -7 -47 5 -13 4 -14 -9 -3 -12 10 -12 16 -3 34 7 11
11 26 10 32 -1 6 5 17 13 24 8 7 15 20 15 30 0 15 8 30 16 30 2 0 0 -15 -3
-34z m74 -68 c-3 -7 -5 -2 -5 12 0 14 2 19 5 13 2 -7 2 -19 0 -25z m-10 -55
c-3 -10 -5 -4 -5 12 0 17 2 24 5 18 2 -7 2 -21 0 -30z m-107 -53 c0 -20 -2
-22 -10 -10 -5 8 -10 26 -10 40 0 20 2 22 10 10 5 -8 10 -26 10 -40z m100 -15
c-6 -30 -8 -33 -9 -13 -1 25 8 62 14 56 2 -2 -1 -21 -5 -43z"/>
<path d="M691 324 c0 -11 3 -14 6 -6 3 7 2 16 -1 19 -3 4 -6 -2 -5 -13z"/>
<path d="M2885 6295 c26 -22 96 -58 101 -52 2 2 -24 18 -58 36 -35 18 -54 25
-43 16z"/>
<path d="M3481 6219 c-46 -4 -85 -9 -86 -11 -2 -2 90 -3 203 -3 159 0 228 -4
296 -18 105 -21 126 -17 29 6 -152 36 -269 43 -442 26z"/>
<path d="M3348 6193 c6 -2 18 -2 25 0 6 3 1 5 -13 5 -14 0 -19 -2 -12 -5z"/>
<path d="M2985 6157 c-92 -31 -225 -109 -260 -153 -18 -22 -24 -24 -48 -15
-68 26 -353 5 -419 -30 -34 -18 -14 -20 55 -4 69 16 346 22 381 9 12 -5 23 -2
30 7 35 47 211 139 321 170 l76 20 75 -22 c72 -21 301 -139 316 -163 4 -6 31
-16 60 -21 42 -8 65 -7 118 7 83 22 182 22 273 2 122 -28 152 -52 209 -166 53
-106 108 -227 108 -237 0 -8 23 -21 36 -21 32 0 -118 273 -204 372 -18 20 -54
46 -80 59 -41 20 -62 23 -172 24 -69 0 -158 -5 -199 -12 -71 -11 -76 -11 -115
12 -251 147 -299 166 -421 171 -67 3 -113 0 -140 -9z"/>
<path d="M3628 6143 c6 -2 18 -2 25 0 6 3 1 5 -13 5 -14 0 -19 -2 -12 -5z"/>
<path d="M3785 6111 c168 -41 329 -106 453 -183 266 -166 484 -412 638 -719
14 -28 28 -48 31 -45 7 7 -83 176 -142 266 -75 113 -152 205 -258 305 -113
107 -105 101 -206 170 -137 93 -331 177 -488 211 -134 29 -154 25 -28 -5z"/>
<path d="M2198 5939 c-27 -15 -143 -168 -173 -229 -31 -62 -39 -70 -76 -70
-28 0 -156 -31 -203 -49 -50 -20 -21 -23 50 -5 38 9 105 21 149 28 68 10 80
15 81 31 2 24 53 109 114 190 45 59 83 115 78 115 -2 0 -11 -5 -20 -11z"/>
<path d="M2855 5920 c-162 -30 -369 -109 -512 -197 -53 -32 -25 -35 31 -2 51
28 196 80 264 94 18 4 39 13 47 22 29 28 36 8 10 -27 -48 -64 -140 -260 -115
-245 6 3 10 11 10 16 0 38 110 215 125 202 4 -5 5 -3 2 3 -4 7 3 25 15 40 12
16 23 30 24 32 6 10 245 52 295 52 54 0 60 -2 49 -15 -10 -13 -9 -15 9 -15 11
0 21 -5 21 -11 0 -5 -4 -7 -10 -4 -5 3 5 -25 23 -63 18 -38 33 -65 35 -61 2 4
-4 21 -12 38 -19 35 -19 41 -6 41 6 0 10 -6 10 -12 1 -16 30 -56 30 -42 0 6
-14 32 -31 58 -17 26 -29 50 -25 53 23 23 218 3 398 -41 69 -17 82 -6 31 24
-117 69 -494 100 -718 60z"/>
<path d="M1925 5872 c-112 -62 -267 -184 -252 -198 3 -4 30 15 59 41 29 26
100 78 157 116 107 71 123 89 36 41z"/>
<path d="M3825 5644 c86 -84 116 -117 164 -185 17 -23 31 -39 31 -35 0 7 -29
55 -45 73 -5 6 -28 33 -50 59 -43 52 -122 128 -158 153 -12 8 14 -21 58 -65z"/>
<path d="M3870 5698 c223 -135 369 -263 529 -463 273 -341 429 -700 482 -1110
14 -111 29 -154 22 -65 -12 162 -77 445 -140 604 -84 215 -169 356 -359 592
-172 214 -330 353 -493 434 -69 35 -92 39 -41 8z"/>
<path d="M2561 5534 c0 -11 3 -14 6 -6 3 7 2 16 -1 19 -3 4 -6 -2 -5 -13z"/>
<path d="M4325 5531 c-3 -6 2 -14 12 -18 36 -14 189 -108 243 -149 31 -23 72
-60 92 -82 67 -74 71 -89 77 -285 4 -101 10 -181 16 -185 6 -4 22 -23 37 -42
14 -19 34 -44 45 -55 10 -11 45 -53 76 -92 32 -40 60 -73 63 -73 10 0 -100
152 -153 211 -52 59 -54 62 -50 112 6 74 -11 251 -29 314 -29 100 -121 190
-294 288 -113 64 -126 70 -135 56z"/>
<path d="M1663 5462 c-13 -17 -30 -71 -43 -136 -23 -113 -24 -175 -1 -91 7 28
26 95 42 150 15 54 27 101 25 102 -1 2 -12 -10 -23 -25z"/>
<path d="M2536 5465 c-9 -26 -7 -32 5 -12 6 10 9 21 6 23 -2 3 -7 -2 -11 -11z"/>
<path d="M2592 5460 c0 -14 2 -19 5 -12 2 6 2 18 0 25 -3 6 -5 1 -5 -13z"/>
<path d="M2582 5395 c0 -16 2 -22 5 -12 2 9 2 23 0 30 -3 6 -5 -1 -5 -18z"/>
<path d="M4032 5404 c1 -6 13 -24 26 -40 34 -42 189 -283 207 -321 9 -18 21
-35 27 -39 13 -8 14 -11 -37 76 -95 163 -237 368 -223 324z"/>
<path d="M2573 5305 c0 -22 2 -30 4 -17 2 12 2 30 0 40 -3 9 -5 -1 -4 -23z"/>
<path d="M2563 5210 c0 -25 2 -35 4 -22 2 12 2 32 0 45 -2 12 -4 2 -4 -23z"/>
<path d="M4090 5204 c0 -6 7 -19 16 -30 14 -18 14 -18 3 6 -14 31 -19 36 -19
24z"/>
<path d="M4916 5130 c8 -30 42 -100 49 -100 6 0 -17 56 -39 96 -15 26 -16 27
-10 4z"/>
<path d="M1500 5056 c-68 -45 -167 -143 -156 -154 4 -3 30 17 59 45 28 27 80
71 115 97 34 26 62 49 62 52 0 11 -20 1 -80 -40z"/>
<path d="M2554 5005 c0 -49 1 -71 3 -48 2 23 2 64 0 90 -2 26 -3 8 -3 -42z"/>
<path d="M2561 4816 c-1 -77 38 -426 51 -446 7 -11 8 -6 4 17 -13 81 -38 288
-45 383 -6 79 -9 90 -10 46z"/>
<path d="M2412 4755 c-25 -209 -32 -341 -32 -587 l0 -248 -34 0 c-18 0 -54 3
-78 6 l-46 6 -21 107 c-27 142 -68 473 -74 616 -2 33 -4 2 -5 -69 -2 -109 -7
-147 -33 -245 -64 -237 -119 -428 -138 -485 -12 -33 -21 -68 -21 -80 0 -12 -4
-16 -9 -11 -9 10 -29 127 -55 320 -22 160 -23 165 -25 113 -5 -179 98 -668
201 -958 37 -104 146 -336 154 -328 1 2 -16 42 -40 89 -46 92 -91 198 -111
264 -7 22 -16 47 -20 57 -5 12 5 23 37 41 24 14 54 28 68 32 25 6 25 5 26 -62
1 -119 66 -238 155 -283 55 -28 199 -27 247 2 37 23 38 27 13 60 l-19 24 34
-4 c19 -2 34 -9 34 -16 1 -6 10 0 20 13 29 34 53 126 47 177 l-4 43 26 -17
c14 -9 44 -30 66 -47 l40 -30 -23 33 c-13 17 -28 32 -33 32 -6 0 -7 4 -4 10 6
10 -111 100 -194 150 -29 16 -70 33 -91 36 -22 4 -40 10 -40 14 0 3 -13 5 -30
2 -28 -4 -31 -1 -58 59 -37 83 -78 193 -92 247 -6 24 -14 50 -17 58 -6 16 23
18 100 8 l45 -6 7 -107 c4 -58 13 -135 21 -171 12 -58 13 -60 8 -15 -2 28 -7
106 -11 173 l-6 124 49 -7 c58 -8 258 -55 271 -64 5 -3 28 -60 52 -126 69
-191 213 -465 291 -555 17 -19 2 8 -32 60 -110 168 -208 370 -248 510 -10 36
-21 73 -25 83 -6 15 -4 16 19 7 34 -13 33 -4 -1 14 -25 12 -32 29 -62 138 -18
67 -40 140 -47 161 -8 20 -14 47 -14 60 0 12 -5 29 -10 37 -7 11 -8 6 -4 -17
11 -56 -6 -37 -51 60 -85 183 -144 379 -154 517 l-6 85 -13 -110z m96 -345
c36 -95 76 -192 133 -320 21 -47 80 -240 73 -240 -2 0 -46 11 -97 24 -52 14
-122 28 -156 32 -33 3 -61 9 -62 13 0 3 -2 20 -5 36 -3 25 14 567 21 645 1 14
3 39 4 55 2 22 9 8 26 -55 13 -47 41 -132 63 -190z m-358 -200 c11 -80 27
-173 35 -209 9 -35 13 -66 11 -69 -3 -2 -43 -8 -88 -12 l-83 -7 91 -2 91 -1
22 -77 c24 -81 85 -234 108 -268 7 -11 13 -22 13 -26 0 -3 -33 -10 -72 -13
-105 -10 -196 -33 -244 -61 l-41 -24 -22 82 c-36 128 -37 168 -7 281 14 55 31
103 37 107 7 4 7 8 1 10 -6 2 5 56 27 129 53 179 95 310 98 307 1 -2 12 -68
23 -147z m298 -882 c16 -16 15 -100 -1 -122 -20 -27 -54 -6 -63 39 -12 66 29
118 64 83z m87 -58 c3 -5 2 -10 -4 -10 -5 0 -13 5 -16 10 -3 6 -2 10 4 10 5 0
13 -4 16 -10z m-205 -24 c0 -3 -4 -8 -10 -11 -5 -3 -10 -1 -10 4 0 6 5 11 10
11 6 0 10 -2 10 -4z m10 -73 c-11 -17 -11 -17 -6 0 3 10 7 26 7 35 1 15 2 15
6 0 2 -10 -1 -25 -7 -35z m43 26 c4 -16 3 -18 -9 -8 -16 13 -19 29 -5 29 5 0
11 -9 14 -21z m97 -24 c0 -5 -5 -3 -10 5 -5 8 -10 20 -10 25 0 6 5 3 10 -5 5
-8 10 -19 10 -25z m-105 -15 c3 -5 1 -10 -4 -10 -6 0 -11 5 -11 10 0 6 2 10 4
10 3 0 8 -4 11 -10z m-109 -37 c-6 -6 -36 9 -36 18 0 5 9 4 20 -3 10 -7 18
-14 16 -15z m48 -1 c2 -4 -4 -8 -14 -8 -10 0 -16 4 -14 8 3 4 9 8 14 8 5 0 11
-4 14 -8z m0 -30 c3 -5 -1 -9 -9 -9 -8 0 -12 4 -9 9 3 4 7 8 9 8 2 0 6 -4 9
-8z m221 -22 c-3 -5 -11 -10 -16 -10 -6 0 -7 5 -4 10 3 6 11 10 16 10 6 0 7
-4 4 -10z m-148 -26 c-3 -3 -12 -4 -19 -1 -8 3 -5 6 6 6 11 1 17 -2 13 -5z"/>
<path d="M1317 4823 c-13 -12 -7 -179 8 -236 20 -79 20 -83 -20 -137 -19 -26
-49 -77 -66 -113 -39 -84 -35 -122 5 -46 51 96 88 149 99 142 6 -4 7 -1 3 6
-5 7 0 21 10 32 15 16 15 25 6 57 -16 55 -44 253 -39 279 5 25 4 27 -6 16z"/>
<path d="M3431 4784 c0 -11 3 -14 6 -6 3 7 2 16 -1 19 -3 4 -6 -2 -5 -13z"/>
<path d="M3441 4744 c0 -11 3 -14 6 -6 3 7 2 16 -1 19 -3 4 -6 -2 -5 -13z"/>
<path d="M3422 4730 c0 -14 2 -19 5 -12 2 6 2 18 0 25 -3 6 -5 1 -5 -13z"/>
<path d="M4432 4745 c7 -28 133 -323 136 -320 5 5 -16 70 -38 120 -26 58 -101
212 -98 200z"/>
<path d="M3456 4690 c4 -19 11 -44 15 -55 6 -14 7 -9 3 15 -4 19 -11 44 -15
55 -6 14 -7 9 -3 -15z"/>
<path d="M3431 4648 c-1 -52 15 -183 59 -483 16 -110 33 -234 39 -275 l10 -75
-5 85 c-4 96 -21 261 -30 303 -3 15 -4 27 -1 27 2 0 27 -30 55 -67 28 -38 95
-113 148 -167 106 -109 105 -101 16 -126 -24 -6 -42 -13 -39 -16 2 -2 30 2 63
11 32 8 62 15 66 15 4 0 36 -25 70 -56 98 -87 215 -172 282 -205 33 -16 52
-23 42 -17 -200 132 -376 271 -357 282 11 7 142 25 183 26 23 0 30 -8 54 -60
15 -33 29 -59 31 -57 2 2 -6 25 -17 51 -25 59 -25 66 -1 66 13 0 43 -32 89
-94 58 -78 73 -108 90 -173 33 -123 36 -136 26 -130 -11 7 -81 14 -209 22 -69
4 -117 2 -155 -8 -96 -23 -266 -150 -315 -236 -9 -16 1 -11 50 24 55 40 54 40
53 -22 -2 -86 24 -153 81 -206 60 -57 98 -67 193 -56 40 4 78 8 84 9 6 0 29
16 53 36 37 32 40 38 25 48 -15 11 -15 14 1 29 14 15 15 20 3 35 -11 15 -11
16 3 5 9 -7 19 -9 24 -5 4 4 4 -3 1 -15 -14 -46 12 -22 33 30 28 70 35 123 23
176 l-10 43 26 -5 c15 -3 41 -11 57 -18 41 -17 55 -19 55 -8 0 5 -4 9 -9 9 -5
0 -11 14 -15 31 -3 17 -12 45 -20 62 -7 18 -21 64 -31 102 -29 117 -67 225
-79 225 -6 1 -25 20 -43 43 l-32 42 52 6 c51 6 37 11 -33 13 -30 1 -39 8 -77
61 -69 97 -117 206 -194 438 -39 119 -74 216 -76 213 -4 -4 84 -301 118 -396
34 -94 109 -310 109 -314 0 -1 -53 -9 -117 -16 l-116 -13 -41 44 c-102 110
-140 154 -155 180 -9 15 -37 58 -63 96 -59 86 -75 125 -83 207 -4 37 -15 113
-25 169 -15 82 -19 93 -19 55z m631 -645 c43 -76 43 -73 21 -73 -14 0 -24 16
-40 65 -12 36 -20 65 -18 65 2 0 18 -26 37 -57z m-62 -678 c7 -8 20 -15 29
-16 10 0 11 -2 4 -6 -7 -2 -13 -15 -13 -28 0 -37 -21 -76 -39 -73 -9 2 -22 22
-30 45 -13 37 -13 44 2 67 20 30 29 32 47 11z m115 -55 c3 -6 -1 -7 -9 -4 -18
7 -21 14 -7 14 6 0 13 -4 16 -10z m40 -28 c-3 -3 -11 0 -18 7 -9 10 -8 11 6 5
10 -3 15 -9 12 -12z m-208 -44 c-3 -8 -6 -5 -6 6 -1 11 2 17 5 13 3 -3 4 -12
1 -19z m115 -10 c-7 -7 -12 -8 -12 -2 0 6 3 14 7 17 3 4 9 5 12 2 2 -3 -1 -11
-7 -17z m-47 -18 c-24 -26 -32 -18 -9 9 10 11 20 18 23 16 2 -3 -4 -14 -14
-25z m-205 -24 c0 -3 -4 -8 -10 -11 -5 -3 -10 -1 -10 4 0 6 5 11 10 11 6 0 10
-2 10 -4z m15 -16 c-3 -5 -1 -10 6 -10 7 0 10 -3 6 -6 -9 -9 -28 6 -22 17 4 5
8 9 11 9 3 0 2 -4 -1 -10z m313 -2 c8 -10 4 -13 -14 -14 -20 -2 -23 1 -13 12
14 17 14 17 27 2z m-282 -42 c10 -8 17 -17 14 -19 -3 -3 -16 3 -29 14 -27 22
-15 26 15 5z m260 -1 c-11 -8 -22 -12 -25 -9 -6 6 19 24 34 24 6 -1 1 -7 -9
-15z m-203 -15 c6 -24 -10 -37 -26 -21 -9 9 -7 11 8 5 16 -6 18 -5 8 7 -15 15
-17 29 -4 29 5 0 11 -9 14 -20z"/>
<path d="M3480 4595 c0 -5 5 -17 10 -25 5 -8 10 -10 10 -5 0 6 -5 17 -10 25
-5 8 -10 11 -10 5z"/>
<path d="M3501 4545 c1 -19 18 -51 18 -35 0 8 -4 22 -9 30 -5 8 -9 11 -9 5z"/>
<path d="M3520 4485 c0 -5 5 -17 10 -25 5 -8 10 -10 10 -5 0 6 -5 17 -10 25
-5 8 -10 11 -10 5z"/>
<path d="M3540 4433 c0 -17 117 -275 131 -287 7 -6 10 -7 7 -1 -40 81 -98 206
-98 212 -1 14 -39 88 -40 76z"/>
<path d="M4590 4345 c38 -110 109 -359 144 -505 53 -221 85 -426 99 -630 9
-143 13 -171 17 -125 4 42 14 75 35 110 42 71 52 79 116 91 l58 10 -2 -34 c-1
-20 3 -37 11 -39 8 -3 12 8 12 35 0 38 2 40 38 47 20 4 31 10 24 12 -8 3 -57
-3 -109 -13 -106 -20 -131 -35 -157 -98 -24 -58 -27 -51 -41 121 l-7 81 84 7
c45 4 158 5 251 3 107 -2 167 1 167 7 0 6 3 5 8 -1 4 -6 23 -9 47 -6 l40 6
-55 10 -54 11 -33 100 c-30 93 -32 110 -34 250 -1 83 -5 200 -9 260 -5 65 -6
-35 -3 -247 l4 -358 -104 0 c-57 0 -151 -3 -209 -6 l-105 -7 -8 59 c-6 52 -41
226 -75 379 -27 122 -146 503 -161 520 -5 5 0 -17 11 -50z"/>
<path d="M4993 4241 c-17 -69 -30 -128 -28 -129 9 -9 34 61 50 136 27 134 13
129 -22 -7z"/>
<path d="M2932 4280 c0 -14 2 -19 5 -12 2 6 2 18 0 25 -3 6 -5 1 -5 -13z"/>
<path d="M1482 4185 c0 -16 2 -22 5 -12 2 9 2 23 0 30 -3 6 -5 -1 -5 -18z"/>
<path d="M2981 4104 c0 -11 3 -14 6 -6 3 7 2 16 -1 19 -3 4 -6 -2 -5 -13z"/>
<path d="M1262 4068 c3 -25 20 -28 26 -6 2 9 0 8 -8 -2 -10 -12 -11 -11 -7 8
3 12 1 22 -5 22 -5 0 -8 -10 -6 -22z"/>
<path d="M1493 4050 c0 -25 2 -35 4 -22 2 12 2 32 0 45 -2 12 -4 2 -4 -23z"/>
<path d="M4980 4077 c0 -5 9 -22 20 -37 24 -33 21 -37 -48 -46 l-52 -7 0 -88
c0 -95 4 -90 -67 -104 -36 -7 -38 -12 -34 -105 3 -64 11 -75 54 -75 l32 0 3
-77 c3 -88 -2 -85 97 -65 l60 13 5 76 c3 42 7 78 10 81 3 2 19 9 35 14 30 9
30 11 33 88 3 84 -4 99 -44 89 -20 -5 -22 -1 -26 50 -1 31 0 56 4 56 4 0 17
-18 28 -41 12 -23 24 -38 27 -35 10 10 -55 128 -97 176 -22 25 -40 41 -40 37z"/>
<path d="M3033 3940 c3 -14 8 -68 12 -120 3 -52 8 -124 11 -160 7 -97 53 -364
69 -407 16 -44 20 -24 5 27 -20 71 -74 469 -65 479 3 2 9 -9 15 -25 13 -34
113 -233 143 -284 56 -96 157 -239 201 -284 l48 -51 -43 53 c-66 81 -134 184
-204 312 -82 148 -121 240 -156 369 -15 57 -31 106 -35 110 -4 3 -4 -5 -1 -19z"/>
<path d="M1511 3894 c0 -11 3 -14 6 -6 3 7 2 16 -1 19 -3 4 -6 -2 -5 -13z"/>
<path d="M4210 3865 c0 -5 5 -17 10 -25 5 -8 10 -10 10 -5 0 6 -5 17 -10 25
-5 8 -10 11 -10 5z"/>
<path d="M3533 3796 c3 -7 9 -54 12 -105 4 -50 10 -90 12 -87 10 9 -9 206 -19
206 -6 0 -8 -6 -5 -14z"/>
<path d="M4130 3760 c6 -11 13 -20 16 -20 2 0 0 9 -6 20 -6 11 -13 20 -16 20
-2 0 0 -9 6 -20z"/>
<path d="M4392 3740 c0 -14 2 -19 5 -12 2 6 2 18 0 25 -3 6 -5 1 -5 -13z"/>
<path d="M4407 3650 c9 -88 12 -227 6 -251 -3 -10 -9 -16 -14 -13 -14 8 -11
-6 5 -21 11 -11 12 -24 5 -56 -6 -23 -8 -49 -6 -58 2 -9 7 8 12 37 6 42 11 52
27 52 10 0 21 -7 24 -15 6 -15 -51 -125 -65 -125 -7 0 -31 -44 -31 -58 0 -3
24 17 53 46 33 33 69 57 100 68 53 18 59 29 22 38 -30 8 -31 17 -6 40 18 17
20 16 46 -18 34 -45 135 -227 135 -243 0 -7 -8 -13 -17 -13 -21 -1 -74 -29
-55 -30 7 0 28 7 47 14 l35 15 20 -37 c10 -20 19 -34 20 -30 1 17 -74 175
-117 248 -26 44 -56 95 -65 113 -9 17 -23 39 -31 47 -8 8 -38 44 -68 80 -48
58 -55 73 -71 150 -17 83 -18 84 -11 20z m69 -208 c-12 -11 -46 12 -46 30 0
21 0 21 25 -2 14 -13 23 -25 21 -28z"/>
<path d="M3563 3545 c0 -27 2 -38 4 -22 2 15 2 37 0 50 -2 12 -4 0 -4 -28z"/>
<path d="M3572 3450 c0 -14 2 -19 5 -12 2 6 2 18 0 25 -3 6 -5 1 -5 -13z"/>
<path d="M1620 3415 c0 -5 5 -17 10 -25 5 -8 10 -10 10 -5 0 6 -5 17 -10 25
-5 8 -10 11 -10 5z"/>
<path d="M1863 3387 c-63 -22 -81 -37 -42 -37 23 0 61 -18 71 -34 4 -6 -2 -19
-15 -28 -13 -11 -17 -18 -8 -18 7 0 30 -13 51 -30 32 -25 39 -27 44 -14 8 22
8 26 -3 19 -10 -6 -7 60 4 96 4 12 3 19 -2 16 -14 -9 -37 9 -29 22 4 6 11 9
15 7 4 -3 8 1 8 9 0 19 -18 18 -94 -8z m87 -67 c0 -5 -4 -10 -10 -10 -5 0 -10
5 -10 10 0 6 5 10 10 10 6 0 10 -4 10 -10z"/>
<path d="M4352 3340 c0 -19 2 -27 5 -17 2 9 2 25 0 35 -3 9 -5 1 -5 -18z"/>
<path d="M3581 3344 c0 -11 3 -14 6 -6 3 7 2 16 -1 19 -3 4 -6 -2 -5 -13z"/>
<path d="M3602 3250 c0 -14 2 -19 5 -12 2 6 2 18 0 25 -3 6 -5 1 -5 -13z"/>
<path d="M1970 3215 c0 -5 5 -17 10 -25 5 -8 10 -10 10 -5 0 6 -5 17 -10 25
-5 8 -10 11 -10 5z"/>
<path d="M1720 3207 c0 -2 11 -18 25 -37 29 -39 33 -32 8 11 -14 24 -33 39
-33 26z"/>
<path d="M3141 3200 c0 -8 6 -28 14 -45 17 -39 18 -21 0 25 -7 19 -14 28 -14
20z"/>
<path d="M1287 3104 c3 -7 9 -14 14 -14 14 0 10 17 -5 23 -10 4 -13 1 -9 -9z"/>
<path d="M3170 3114 c0 -6 7 -19 16 -30 14 -18 14 -18 3 6 -14 31 -19 36 -19
24z"/>
<path d="M4324 3098 l-19 -23 23 19 c21 18 27 26 19 26 -2 0 -12 -10 -23 -22z"/>
<path d="M1775 3049 c-4 -6 -5 -12 -2 -15 2 -3 7 2 10 11 7 17 1 20 -8 4z"/>
<path d="M2168 3033 c7 -3 16 -2 19 1 4 3 -2 6 -13 5 -11 0 -14 -3 -6 -6z"/>
<path d="M1430 3021 c0 -6 4 -13 10 -16 6 -3 7 1 4 9 -7 18 -14 21 -14 7z"/>
<path d="M4835 3010 c-3 -5 -1 -10 4 -10 6 0 11 5 11 10 0 6 -2 10 -4 10 -3 0
-8 -4 -11 -10z"/>
<path d="M1856 2944 c-3 -9 -4 -19 -1 -22 3 -3 5 1 5 9 0 11 2 11 10 -1 5 -8
10 -10 10 -5 0 6 -4 16 -9 23 -6 11 -10 10 -15 -4z"/>
<path d="M4801 2794 c0 -11 3 -14 6 -6 3 7 2 16 -1 19 -3 4 -6 -2 -5 -13z"/>
<path d="M4814 2715 c14 -84 39 -195 43 -191 5 5 -37 219 -44 226 -3 3 -3 -13
1 -35z"/>
<path d="M1656 2687 c3 -10 9 -15 12 -12 3 3 0 11 -7 18 -10 9 -11 8 -5 -6z"/>
<path d="M1955 2651 c27 -28 50 -51 50 -51 1 0 2 7 2 15 0 8 -4 12 -8 9 -4 -2
-19 11 -34 30 -14 19 -34 37 -43 41 -9 3 5 -17 33 -44z"/>
<path d="M4432 2520 c0 -14 2 -19 5 -12 2 6 2 18 0 25 -3 6 -5 1 -5 -13z"/>
<path d="M4437 2250 c4 -254 7 -297 24 -465 14 -142 59 -467 67 -488 4 -10 6
137 4 325 -2 199 1 339 6 333 5 -5 20 -37 34 -70 26 -60 26 -62 32 -435 8
-458 22 -609 71 -785 21 -71 42 -147 47 -167 12 -43 18 -46 43 -18 10 11 25
20 33 20 28 0 216 -101 327 -176 157 -105 269 -216 296 -293 6 -17 15 -31 20
-31 14 0 11 12 -22 69 -44 77 -151 178 -276 262 -110 73 -313 179 -384 201
-37 10 -41 15 -55 67 -8 31 -20 69 -25 85 -5 16 -8 31 -6 32 5 5 165 -59 230
-93 l59 -29 46 23 c25 13 53 23 61 23 30 -1 112 -70 146 -125 45 -70 125 -229
125 -249 0 -8 5 -18 10 -21 20 -13 95 -121 127 -185 18 -36 33 -58 33 -50 -1
27 -37 94 -89 164 -28 38 -51 73 -51 79 0 18 -102 219 -121 241 -11 11 -17 26
-14 34 2 7 0 10 -5 7 -6 -3 -10 -2 -10 3 0 5 -20 29 -45 53 -25 25 -45 53 -45
65 0 13 -21 41 -53 71 -46 42 -58 62 -86 139 -40 109 -97 327 -115 441 -13 82
-13 83 5 67 13 -11 17 -25 13 -38 -3 -14 -2 -17 4 -8 6 9 21 -6 52 -55 24 -37
47 -69 51 -71 5 -2 6 -9 3 -16 -3 -7 4 -21 16 -31 11 -10 20 -24 20 -32 0 -7
5 -13 11 -13 6 0 9 7 5 15 -8 22 2 18 15 -6 8 -15 8 -19 0 -15 -16 10 -8 -29
11 -51 8 -10 23 -33 34 -51 10 -17 22 -32 27 -32 5 0 6 -7 3 -16 -4 -11 -2
-15 8 -11 10 4 13 1 10 -8 -6 -13 23 -69 49 -98 7 -7 13 -17 14 -22 1 -6 24
-51 51 -100 27 -50 55 -101 62 -115 7 -14 17 -32 22 -40 4 -8 11 -22 14 -30 3
-8 22 -51 41 -95 20 -44 43 -98 53 -120 10 -22 25 -56 34 -77 9 -20 16 -43 16
-52 0 -9 3 -16 8 -16 4 0 18 -38 32 -85 23 -80 26 -85 52 -85 28 0 37 13 18
25 -5 3 -17 32 -26 63 -8 31 -18 64 -21 72 -8 20 -10 26 -27 90 -9 30 -13 40
-11 23 7 -51 -10 -39 -24 18 -9 35 -17 49 -27 45 -8 -3 -11 0 -8 8 5 14 -38
116 -101 236 -21 41 -39 77 -40 80 -4 21 -79 158 -92 167 -9 7 -14 16 -10 19
3 4 -3 20 -14 36 -12 16 -32 50 -45 76 l-24 47 36 -40 c19 -22 43 -51 52 -65
9 -14 52 -71 95 -128 42 -57 77 -110 77 -117 0 -9 8 -12 20 -10 12 2 18 0 14
-6 -3 -5 7 -27 23 -47 72 -94 191 -291 261 -434 72 -146 103 -193 88 -133 -8
33 -123 267 -135 274 -4 3 -18 26 -30 50 -20 38 -55 94 -143 224 -15 22 -33
44 -40 49 -7 4 -9 8 -5 8 4 0 -11 24 -33 53 -22 28 -56 76 -76 105 -20 31 -40
50 -46 46 -6 -4 -8 -3 -5 3 4 6 -30 58 -76 116 -126 161 -204 263 -285 372
-89 119 -95 126 -87 100 4 -11 -6 3 -22 30 -16 28 -42 70 -59 95 -103 151
-215 369 -284 555 -40 106 -52 169 -64 335 -2 30 -2 -55 1 -190z m70 -230 c9
-19 18 -38 20 -42 2 -5 -3 -8 -11 -8 -10 0 -13 6 -10 15 5 11 2 13 -10 9 -9
-3 -13 -10 -10 -15 3 -5 1 -9 -5 -9 -14 0 -24 74 -15 112 l7 33 9 -30 c6 -16
17 -46 25 -65z m1090 -1972 c-3 -8 -6 -5 -6 6 -1 11 2 17 5 13 3 -3 4 -12 1
-19z"/>
<path d="M4480 2021 c0 -5 5 -13 10 -16 6 -3 10 -2 10 4 0 5 -4 13 -10 16 -5
3 -10 2 -10 -4z"/>
<path d="M1291 2354 c0 -11 3 -14 6 -6 3 7 2 16 -1 19 -3 4 -6 -2 -5 -13z"/>
<path d="M1281 2294 c0 -11 3 -14 6 -6 3 7 2 16 -1 19 -3 4 -6 -2 -5 -13z"/>
<path d="M3248 2293 c6 -2 18 -2 25 0 6 3 1 5 -13 5 -14 0 -19 -2 -12 -5z"/>
<path d="M5000 2047 c0 -13 62 -178 66 -174 2 2 -10 41 -27 88 -28 78 -39 101
-39 86z"/>
<path d="M5080 1825 c0 -5 5 -17 10 -25 5 -8 10 -10 10 -5 0 6 -5 17 -10 25
-5 8 -10 11 -10 5z"/>
<path d="M5170 1746 c0 -2 7 -7 16 -10 8 -3 12 -2 9 4 -6 10 -25 14 -25 6z"/>
<path d="M1171 1664 c0 -11 3 -14 6 -6 3 7 2 16 -1 19 -3 4 -6 -2 -5 -13z"/>
<path d="M5320 1625 c13 -14 26 -25 28 -25 3 0 -5 11 -18 25 -13 14 -26 25
-28 25 -3 0 5 -11 18 -25z"/>
<path d="M1161 1604 c0 -11 3 -14 6 -6 3 7 2 16 -1 19 -3 4 -6 -2 -5 -13z"/>
<path d="M5650 1566 c0 -3 9 -10 20 -16 11 -6 20 -8 20 -6 0 3 -9 10 -20 16
-11 6 -20 8 -20 6z"/>
<path d="M1141 1504 c0 -11 3 -14 6 -6 3 7 2 16 -1 19 -3 4 -6 -2 -5 -13z"/>
<path d="M5792 1477 c36 -23 74 -54 82 -69 9 -14 65 -91 125 -170 166 -220
288 -389 399 -552 l102 -149 0 264 0 264 -63 39 c-50 32 -183 112 -457 276
-97 58 -242 140 -248 140 -4 -1 23 -20 60 -43z"/>
<path d="M5485 1480 c10 -11 20 -20 23 -20 3 0 -3 9 -13 20 -10 11 -20 20 -23
20 -3 0 3 -9 13 -20z"/>
<path d="M1805 1440 c11 -14 26 -30 34 -37 12 -10 12 -15 1 -30 -13 -17 -13
-17 5 -1 18 16 17 18 -20 55 -22 21 -30 27 -20 13z"/>
<path d="M1530 1446 c0 -2 7 -9 15 -16 13 -11 14 -10 9 4 -5 14 -24 23 -24 12z"/>
<path d="M1585 1429 c-4 -6 -5 -12 -2 -15 2 -3 7 2 10 11 7 17 1 20 -8 4z"/>
<path d="M1960 1426 c0 -5 121 -85 159 -105 38 -21 22 -5 -26 26 -98 62 -133
83 -133 79z"/>
<path d="M5510 1366 c0 -5 15 -25 33 -45 66 -76 82 -96 79 -103 -1 -5 2 -8 7
-8 5 0 12 -8 15 -18 4 -10 14 -27 24 -38 9 -10 26 -32 36 -49 11 -16 23 -34
28 -40 10 -11 110 -166 172 -267 48 -76 186 -348 186 -365 0 -7 4 -13 9 -13 6
0 3 17 -5 38 -24 57 -86 186 -93 192 -3 3 -22 37 -41 75 -19 39 -44 84 -55
100 -26 38 -38 59 -71 118 -15 26 -31 47 -36 47 -4 0 -8 7 -8 15 0 8 -4 15
-10 15 -5 0 -10 4 -10 10 0 5 -27 47 -60 93 -33 47 -60 88 -60 93 -1 12 -140
161 -140 150z"/>
<path d="M1855 1349 c-4 -6 -5 -12 -2 -15 2 -3 7 2 10 11 7 17 1 20 -8 4z"/>
<path d="M1922 1319 c56 -49 81 -91 64 -110 -9 -11 -8 -11 5 -1 9 6 20 8 25 4
5 -4 1 2 -9 14 -9 11 -17 25 -17 30 0 12 -93 104 -105 104 -5 0 12 -18 37 -41z"/>
<path d="M1780 1321 c0 -6 4 -13 10 -16 6 -3 7 1 4 9 -7 18 -14 21 -14 7z"/>
<path d="M2150 1305 c0 -19 343 -155 454 -180 11 -2 52 -12 90 -20 38 -9 74
-14 79 -12 6 2 -52 18 -129 36 -156 37 -292 85 -407 142 -78 39 -87 43 -87 34z"/>
<path d="M2010 1176 c0 -2 7 -7 16 -10 8 -3 12 -2 9 4 -6 10 -25 14 -25 6z"/>
<path d="M2060 1156 c0 -2 7 -7 16 -10 8 -3 12 -2 9 4 -6 10 -25 14 -25 6z"/>
<path d="M2215 1080 c-16 -7 -17 -9 -3 -9 9 -1 20 4 23 9 7 11 7 11 -20 0z"/>
<path d="M2126 930 c4 -8 32 -43 62 -78 83 -99 247 -454 339 -734 l38 -117
188 -1 188 0 -71 87 c-66 81 -240 284 -350 408 -25 28 -92 107 -150 175 -105
124 -259 288 -244 260z"/>
<path d="M1137 878 c-8 -24 -18 -52 -22 -63 -5 -13 -5 -17 2 -10 13 14 46 105
40 111 -3 3 -12 -14 -20 -38z"/>
<path d="M5950 846 c0 -2 8 -10 18 -17 15 -13 16 -12 3 4 -13 16 -21 21 -21
13z"/>
<path d="M1096 764 c-4 -14 -5 -28 -3 -31 3 -2 8 8 11 23 4 14 5 28 3 31 -3 2
-8 -8 -11 -23z"/>
<path d="M5580 671 c0 -6 4 -13 10 -16 6 -3 7 1 4 9 -7 18 -14 21 -14 7z"/>
<path d="M3082 573 c48 -49 116 -119 153 -158 37 -38 64 -63 59 -55 -13 24
-278 300 -288 300 -5 0 29 -39 76 -87z"/>
<path d="M5431 625 c-1 -14 35 -114 43 -123 4 -4 4 7 1 23 -9 35 -43 114 -44
100z"/>
<path d="M4741 434 c0 -11 3 -14 6 -6 3 7 2 16 -1 19 -3 4 -6 -2 -5 -13z"/>
<path d="M5501 414 c0 -11 3 -14 6 -6 3 7 2 16 -1 19 -3 4 -6 -2 -5 -13z"/>
<path d="M4755 385 c8 -46 114 -392 114 -374 1 14 -102 369 -114 394 -3 6 -2
-3 0 -20z"/>
<path d="M6110 400 c0 -9 9 -33 20 -55 26 -51 26 -30 0 26 -11 24 -20 37 -20
29z"/>
<path d="M5521 355 c1 -19 18 -51 18 -35 0 8 -4 22 -9 30 -5 8 -9 11 -9 5z"/>
<path d="M3336 310 c18 -19 51 -55 74 -80 l43 -45 -41 50 c-22 28 -55 63 -74
80 l-33 30 31 -35z"/>
<path d="M3509 113 c24 -29 46 -53 48 -53 7 0 -54 75 -74 91 -10 8 2 -10 26
-38z"/>
<path d="M3570 43 c0 -6 8 -17 18 -24 16 -13 16 -13 2 6 -8 11 -16 22 -17 24
-2 2 -3 0 -3 -6z"/>
</g>
</svg>
